<svg width="16" height="16" viewBox="0 0 16 16" fill="none" xmlns="http://www.w3.org/2000/svg">
<path d="M14 2V15H3.5C3.10218 15 2.72064 14.842 2.43934 14.5607C2.15804 14.2794 2 13.8978 2 13.5C2 13.1022 2.15804 12.7206 2.43934 12.4393C2.72064 12.158 3.10218 12 3.5 12H13V0H3C1.9 0 1 0.9 1 2V14C1 15.1 1.9 16 3 16H15V2H14Z" fill="black"/>
<path d="M3.501 13C3.36839 13 3.24021 13.0527 3.14645 13.1464C3.05268 13.2402 3 13.3674 3 13.5C3 13.6326 3.05268 13.7598 3.14645 13.8536C3.24021 13.9473 3.36739 14 3.5 14H12.999V13H3.501Z" fill="black"/>
</svg>
