<svg width="5" height="4" viewBox="0 0 5 4" fill="none" xmlns="http://www.w3.org/2000/svg">
<path d="M3.37604 1.81272C3.63683 1.81272 3.84578 1.60221 3.84578 1.34142C3.84578 1.08063 3.63683 0.870117 3.37604 0.870117C3.11526 0.870117 2.90474 1.08063 2.90474 1.34142C2.90474 1.60221 3.11526 1.81272 3.37604 1.81272ZM2.11924 1.81272C2.38002 1.81272 2.58897 1.60221 2.58897 1.34142C2.58897 1.08063 2.38002 0.870117 2.11924 0.870117C1.85845 0.870117 1.64793 1.08063 1.64793 1.34142C1.64793 1.60221 1.85845 1.81272 2.11924 1.81272ZM2.11924 2.12692C1.75319 2.12692 1.01953 2.31073 1.01953 2.67678V3.06953H3.21894V2.67678C3.21894 2.31073 2.48528 2.12692 2.11924 2.12692ZM3.37604 2.12692C3.33049 2.12692 3.27864 2.13007 3.22366 2.13478C3.40589 2.26674 3.53315 2.44427 3.53315 2.67678V3.06953H4.47575V2.67678C4.47575 2.31073 3.74209 2.12692 3.37604 2.12692Z" fill="black"/>
</svg>
