<svg width="170" height="48" viewBox="0 0 170 48" fill="none" xmlns="http://www.w3.org/2000/svg">
<path d="M10.3709 36.9331C8.5036 37.1615 7.02718 36.8091 5.94168 35.8758C4.85332 34.9192 4.18778 33.4488 3.94505 31.4648L3.77372 30.0643L7.41501 29.6188L7.62061 31.2994C7.81479 32.8867 8.57711 33.5989 9.90758 33.4361C10.5611 33.3562 11.0285 33.1095 11.3096 32.696C11.6112 32.2564 11.7091 31.6048 11.6035 30.7411C11.4778 29.7141 11.1345 28.844 10.5734 28.1308C10.0095 27.3943 9.03019 26.5547 7.63553 25.6118C5.87697 24.4055 4.61404 23.2807 3.84675 22.2374C3.07661 21.1707 2.60444 19.9255 2.43025 18.5017C2.19324 16.5643 2.50066 15.0105 3.35251 13.8402C4.2015 12.6465 5.55967 11.9355 7.42699 11.707C9.27098 11.4814 10.7255 11.8484 11.7905 12.8079C12.876 13.7412 13.5401 15.1998 13.7828 17.1839L13.9071 18.1992L10.2658 18.6447L10.1116 17.3843C10.0088 16.544 9.77113 15.9571 9.39866 15.6236C9.02334 15.2668 8.52056 15.1269 7.89034 15.204C6.60655 15.361 6.06032 16.2215 6.25164 17.7854C6.36015 18.6724 6.69493 19.4725 7.256 20.1856C7.84041 20.8959 8.82994 21.7225 10.2246 22.6654C12.0065 23.8688 13.2709 25.0053 14.0177 26.0748C14.7645 27.1443 15.2321 28.4493 15.4206 29.9899C15.6661 31.9972 15.3528 33.5992 14.4804 34.7957C13.6314 35.9893 12.2616 36.7018 10.3709 36.9331Z" fill="white"/>
<path d="M25.2044 13.6699L21.1649 14.0406L20.8426 10.528L32.7854 9.43211L33.1077 12.9447L29.0683 13.3154L31.0021 34.3909L27.1383 34.7454L25.2044 13.6699Z" fill="white"/>
<path d="M40.4795 8.84421L46.2185 8.49682C48.2137 8.37605 49.6974 8.75741 50.6697 9.6409C51.6405 10.5009 52.1842 11.8933 52.3007 13.8181L52.3924 15.3321C52.5472 17.8906 51.8003 19.5613 50.1514 20.3444L50.1557 20.4148C51.1116 20.6396 51.8037 21.1749 52.2318 22.0207C52.6834 22.865 52.9533 24.0148 53.0414 25.4701L53.3035 29.8008C53.3461 30.505 53.4044 31.0787 53.4784 31.5218C53.5509 31.9415 53.6938 32.3569 53.9072 32.768L49.9638 33.0067C49.7988 32.6162 49.6822 32.2463 49.6139 31.8971C49.5456 31.5478 49.4838 30.9155 49.4284 30.0001L49.1556 25.4933C49.0874 24.3666 48.852 23.5916 48.4495 23.1684C48.0704 22.7437 47.4348 22.5584 46.5429 22.6124L45.2049 22.6934L45.8443 33.2561L41.9713 33.4905L40.4795 8.84421ZM46.4002 19.0872C47.1748 19.0403 47.7378 18.806 48.0892 18.3842C48.4641 17.961 48.6231 17.28 48.5663 16.3411L48.4512 14.4398C48.3972 13.5478 48.1938 12.9123 47.841 12.5332C47.5117 12.1526 47.0067 11.9829 46.326 12.0241L44.5656 12.1307L44.9918 19.1725L46.4002 19.0872Z" fill="white"/>
<path d="M61.1358 7.74282L71.7132 7.43163L71.817 10.9574L65.1179 11.1545L65.3098 17.6773L70.6338 17.5207L70.7375 21.0465L65.4136 21.2031L65.6366 28.7836L72.3356 28.5865L72.4394 32.1124L61.8619 32.4236L61.1358 7.74282Z" fill="white"/>
<path d="M82.815 7.31584L88.0707 7.32443L92.0515 32.0224L88.1714 32.016L87.474 27.1119L87.4739 27.1824L83.0647 27.1752L82.3513 32.0065L78.7534 32.0006L82.815 7.31584ZM87.0208 23.8307L85.3123 11.6233L85.2418 11.6232L83.5287 23.825L87.0208 23.8307Z" fill="white"/>
<path d="M100.611 7.46513L106.145 7.67321L107.948 25.4255L108.019 25.4281L111.15 7.8614L116.684 8.06948L115.757 32.7435L112.091 32.6056L112.793 13.9239L112.723 13.9212L109.2 32.4969L105.957 32.375L103.84 13.5873L103.77 13.5846L103.067 32.2663L99.6832 32.1391L100.611 7.46513Z" fill="white"/>
<path d="M125.233 8.60489L129.105 8.86464L127.452 33.5007L123.581 33.2409L125.233 8.60489Z" fill="white"/>
<path d="M137.742 9.51087L147.964 10.4488L147.642 13.9614L141.284 13.378L140.655 20.2276L145.643 20.6852L145.321 24.1978L140.333 23.7401L139.35 34.4535L135.486 34.099L137.742 9.51087Z" fill="white"/>
<path d="M158.135 25.8456L155.2 11.2009L159.297 11.702L160.822 21.0215L160.892 21.03L164.618 12.3531L168.365 12.8114L161.986 26.3167L160.71 36.7504L156.858 36.2793L158.135 25.8456Z" fill="white"/>
</svg>
