<svg width="4" height="3" viewBox="0 0 4 3" fill="none" xmlns="http://www.w3.org/2000/svg">
<path d="M3.25603 1.29834H2.62208C2.58845 1.29834 2.5562 1.3117 2.53242 1.33548C2.50864 1.35926 2.49528 1.39151 2.49528 1.42513V2.56625C2.49528 2.59988 2.50864 2.63213 2.53242 2.6559C2.5562 2.67968 2.58845 2.69304 2.62208 2.69304H3.25603C3.28966 2.69304 3.3219 2.67968 3.34568 2.6559C3.36946 2.63213 3.38282 2.59988 3.38282 2.56625V1.42513C3.38282 1.39151 3.36946 1.35926 3.34568 1.33548C3.3219 1.3117 3.28966 1.29834 3.25603 1.29834ZM3.25603 2.43946H2.62208V1.55192H3.25603V2.43946ZM2.87566 0.157227H0.593425C0.452687 0.157227 0.339844 0.27007 0.339844 0.410808V1.9323C0.339844 1.99955 0.36656 2.06405 0.414116 2.1116C0.461672 2.15916 0.526171 2.18588 0.593425 2.18588H1.48096V2.43946H1.22738V2.69304H2.2417V2.43946H1.98812V2.18588H2.2417V1.9323H0.593425V0.410808H2.87566V1.04476H3.12924V0.410808C3.12924 0.27007 3.01513 0.157227 2.87566 0.157227Z" fill="black"/>
</svg>
